<?xml version="1.0" encoding="UTF-8" standalone="no"?>
<!DOCTYPE svg PUBLIC "-//W3C//DTD SVG 20010904//EN"
              "http://www.w3.org/TR/2001/REC-SVG-20010904/DTD/svg10.dtd">

<svg xmlns="http://www.w3.org/2000/svg"
     width="16.0958in" height="3.7375in"
     viewBox="0 0 3863 897">
  <path id="ScriptPath"
        fill="#EEEEEE" stroke="#EEEEEE" stroke-width="8"
        d="M 219.00,117.25
           C 219.00,117.25 103.25,323.50 83.25,383.50
             60.75,440.50 28.25,537.50 31.00,573.25
             31.75,591.25 34.75,642.50 54.25,668.00
             72.00,693.75 94.50,697.75 110.50,698.25
             126.25,695.75 129.00,693.00 132.75,689.50
             152.00,666.50 229.00,551.50 238.25,542.50
             247.50,533.50 306.00,452.75 316.50,441.50
             327.00,430.25 366.00,383.50 366.00,385.00
             366.00,386.50 346.25,436.25 341.00,462.75
             335.75,489.25 328.00,554.00 331.00,581.75
             334.00,609.50 339.25,640.50 353.75,660.50
             368.25,680.50 384.25,695.50 419.75,699.50
             456.75,704.50 511.00,689.50 553.25,660.50
             600.25,629.25 626.25,605.50 649.50,579.75
             672.75,554.00 704.75,512.25 728.00,475.75
             751.25,439.25 774.00,380.25 782.50,357.00
             791.00,333.75 802.75,291.00 805.25,266.75
             807.75,242.50 811.75,182.50 810.25,177.00
             822.00,183.25 872.00,206.75 915.00,215.25
             958.00,223.75 1001.50,241.00 1121.75,238.25
             1175.25,238.50 1234.75,233.25 1307.50,216.75
             1319.25,214.50 1408.25,190.50 1408.25,190.50
             1408.25,190.50 1359.25,269.25 1353.75,277.75
             1348.25,286.25 1290.00,367.25 1276.00,385.50
             1262.00,403.75 1215.00,479.50 1203.50,498.75
             1192.00,518.00 1173.00,552.25 1165.25,576.00
             1157.50,599.75 1160.38,610.25 1160.38,610.25
             1160.38,610.25 1137.88,637.63 1124.38,650.00
             1110.88,662.38 1084.50,687.75 1058.13,686.25
             1031.75,684.75 1030.25,670.00 1030.25,658.88
             1030.25,647.75 1037.63,626.13 1041.13,618.75
             1044.63,611.38 1067.50,573.75 1073.25,566.63
             1079.00,559.50 1126.18,494.18 1126.18,494.18
             1126.18,494.18 1161.45,447.82 1168.36,432.00
             1175.27,416.18 1182.00,388.00 1175.09,370.36
             1168.18,352.73 1164.55,344.91 1153.27,342.73
             1142.00,340.55 1128.18,360.00 1123.82,366.00
             1119.45,372.00 1078.73,425.27 1072.73,433.09
             1066.73,440.91 1028.18,496.00 1018.55,510.36
             1008.91,524.73 976.73,572.36 948.36,602.36
             920.00,632.36 856.73,689.82 828.91,676.73
             808.36,666.91 805.09,657.64 809.27,635.09
             813.45,612.55 830.00,572.00 846.18,548.91
             862.36,525.82 895.82,482.18 911.45,467.64
             927.09,453.09 976.36,407.82 991.27,400.36
             1006.18,392.91 1022.73,388.36 1030.00,389.27
             1037.27,390.18 1043.27,395.82 1044.36,400.18
             1045.45,404.55 1044.91,409.45 1050.91,410.18
             1056.91,410.91 1064.00,405.45 1068.36,399.45
             1072.73,393.45 1076.00,384.73 1073.64,377.45
             1071.27,370.18 1064.00,354.18 1039.09,345.82
             1014.18,337.45 977.64,344.55 965.27,348.55
             952.91,352.55 902.91,379.09 878.73,398.73
             854.55,418.36 808.55,464.18 797.27,476.55
             786.00,488.91 749.27,534.91 739.27,566.36
             729.27,597.82 724.75,626.75 732.00,650.75
             739.25,674.75 762.50,700.50 798.00,706.75
             833.50,713.00 868.75,701.25 888.25,692.00
             923.75,676.50 959.50,641.25 959.50,641.25
             959.50,641.25 959.00,699.50 1031.00,710.25
             1105.25,728.25 1168.25,659.00 1168.25,659.00
             1168.25,659.00 1191.00,709.75 1264.00,711.75
             1337.00,713.75 1393.00,659.50 1393.00,659.50
             1393.00,659.50 1430.00,709.50 1511.75,710.50
             1593.50,711.50 1658.00,677.75 1701.25,642.75
             1744.50,607.75 1790.25,561.75 1820.25,519.50
             1850.25,477.25 1872.75,443.00 1872.75,443.00
             1875.62,442.80 1907.75,442.25 1932.25,435.50
             1969.25,428.00 2000.75,412.00 2000.75,412.00
             2000.75,412.00 1919.25,486.75 1893.75,529.25
             1868.25,571.75 1859.00,587.50 1858.00,635.25
             1864.25,682.75 1894.75,703.50 1938.50,712.00
             1997.75,721.00 2044.00,691.50 2044.00,691.50
             2044.00,691.50 2057.00,712.00 2070.50,711.25
             2084.00,710.50 2090.50,686.75 2096.75,678.00
             2103.00,669.25 2158.25,573.50 2177.50,554.00
             2195.75,530.75 2238.75,484.00 2270.50,460.00
             2302.25,436.00 2348.50,407.00 2366.00,402.50
             2383.50,398.00 2400.75,392.25 2374.75,427.25
             2348.75,462.25 2300.25,525.75 2291.75,538.25
             2283.25,550.75 2243.25,605.00 2236.25,637.50
             2229.25,670.00 2234.00,692.50 2242.00,702.50
             2250.00,712.50 2257.75,719.50 2267.00,719.00
             2276.25,718.50 2283.50,704.75 2289.00,696.00
             2294.50,687.25 2337.00,614.00 2348.00,600.50
             2359.00,587.00 2408.25,522.00 2444.50,491.50
             2480.75,461.00 2536.25,419.25 2559.25,411.00
             2582.25,402.75 2607.50,388.75 2587.50,430.75
             2567.50,472.75 2533.00,522.00 2523.50,539.75
             2505.75,566.75 2474.50,629.50 2469.25,660.75
             2464.00,692.00 2460.75,742.50 2486.75,776.75
             2512.75,811.00 2551.50,851.25 2646.00,854.75
             2740.50,858.25 2806.25,778.75 2811.50,757.75
             2816.75,736.75 2801.75,733.00 2795.00,737.00
             2788.25,741.00 2773.50,762.50 2767.00,768.75
             2760.50,775.00 2733.50,812.50 2655.00,813.00
             2584.00,819.25 2545.00,752.25 2542.25,718.75
             2539.50,685.25 2547.50,652.50 2564.75,617.50
             2582.00,582.50 2638.25,488.00 2643.00,479.00
             2647.75,470.00 2689.25,400.25 2652.50,365.25
             2610.00,326.25 2464.50,437.25 2464.50,437.25
             2464.50,437.25 2481.75,379.25 2435.50,354.75
             2389.25,330.25 2249.75,444.25 2249.75,444.25
             2249.75,444.25 2262.25,410.75 2261.25,386.75
             2260.25,362.75 2245.50,345.00 2237.63,345.13
             2229.75,345.25 2196.38,385.00 2187.75,397.75
             2179.13,410.50 2080.00,547.33 2065.67,579.00
             2051.33,610.67 2043.00,643.33 2038.67,650.00
             2034.33,656.67 1988.00,697.33 1954.33,686.00
             1920.67,674.67 1922.00,630.33 1936.67,597.00
             1951.33,563.67 2015.67,488.00 2051.33,459.67
             2087.00,431.33 2086.67,407.33 2066.33,378.00
             2046.00,348.67 2041.67,347.00 2015.67,358.33
             1989.67,369.67 1952.67,387.33 1937.67,390.67
             1922.67,394.00 1895.67,399.00 1895.67,399.00
             1895.67,399.00 1945.67,299.00 1903.67,289.00
             1872.33,281.33 1810.00,341.00 1797.67,384.67
             1788.00,426.33 1827.00,437.00 1827.00,437.00
             1827.00,437.00 1784.00,531.00 1686.67,614.00
             1588.33,692.67 1513.67,694.67 1480.33,671.33
             1427.00,631.00 1469.67,546.00 1469.67,546.00
             1469.67,546.00 1526.00,586.33 1598.33,566.67
             1670.67,547.00 1708.33,482.33 1716.00,460.33
             1723.67,438.33 1739.00,404.67 1678.33,367.67
             1617.67,330.67 1562.64,350.61 1513.64,377.27
             1464.64,403.94 1391.67,490.67 1378.00,546.00
             1364.33,601.33 1376.00,626.00 1376.00,626.00
             1376.00,626.00 1285.02,722.96 1236.69,670.63
             1182.67,616.67 1341.33,425.00 1352.33,409.67
             1363.33,394.33 1442.67,289.33 1457.33,254.00
             1472.00,218.67 1502.67,165.33 1502.67,164.67
             1502.67,164.00 1596.67,144.00 1686.00,146.67
             1775.33,149.33 1810.00,162.67 1820.67,170.00
             1831.33,177.33 1860.67,193.33 1866.00,206.67
             1871.33,220.00 1903.33,230.67 1930.00,218.67
             1956.67,206.67 1982.00,180.67 1944.00,142.67
             1906.00,104.67 1823.33,79.33 1709.33,72.67
             1595.33,66.00 1537.33,89.33 1537.33,89.33
             1537.33,89.33 1560.00,42.00 1557.33,26.67
             1554.67,11.33 1524.67,7.33 1515.33,24.00
             1506.00,40.67 1454.67,116.00 1454.67,116.00
             1454.67,116.00 1293.33,201.33 1116.00,202.00
             938.67,202.67 879.33,143.33 879.33,143.33
             879.33,143.33 848.67,120.00 808.00,88.00
             767.33,56.00 687.33,91.33 678.67,116.00
             670.00,140.67 716.00,184.00 707.33,229.33
             702.00,286.67 706.00,373.33 619.33,505.33
             526.67,632.67 475.33,646.00 442.67,634.67
             410.00,623.33 400.00,562.00 454.67,380.67
             490.67,271.33 554.67,244.00 558.67,218.00
             562.67,192.00 499.33,188.00 486.67,195.33
             474.00,202.67 399.33,251.33 318.67,341.33
             238.00,431.33 116.00,625.33 116.00,625.33
             116.00,625.33 101.33,553.33 144.67,460.67
             188.00,368.00 278.00,203.33 279.33,176.00
             280.67,148.67 285.33,124.00 254.67,113.33
             224.00,102.67 219.00,117.25 219.00,117.25 Z
           M 2947.50,417.50
           C 2964.50,421.50 2968.50,395.50 2969.50,389.50
             2970.50,383.50 2938.50,318.00 2833.50,369.50
             2728.50,421.00 2649.50,544.00 2638.00,582.00
             2626.50,620.00 2627.00,697.50 2692.50,710.00
             2758.00,722.50 2794.50,696.50 2819.50,680.00
             2844.50,663.50 2860.00,646.50 2860.00,646.50
             2860.00,646.50 2859.50,703.50 2932.00,715.50
             3004.50,727.50 3057.00,684.00 3090.00,661.00
             3123.00,638.00 3163.50,574.50 3185.50,532.00
             3207.50,489.50 3226.50,450.00 3226.50,450.00
             3226.50,450.00 3249.50,449.50 3279.50,444.00
             3309.50,438.50 3351.50,420.00 3351.50,420.00
             3351.50,420.00 3254.50,512.00 3226.50,566.50
             3198.50,621.00 3211.50,664.50 3234.00,688.50
             3256.50,712.50 3281.50,719.50 3329.00,717.00
             3376.50,714.50 3407.50,688.50 3407.50,688.50
             3407.50,688.50 3417.50,713.50 3432.00,710.00
             3446.50,706.50 3510.50,560.00 3541.00,526.00
             3571.50,492.00 3594.00,446.50 3669.00,405.50
             3744.00,364.50 3777.00,382.00 3769.00,399.00
             3761.00,416.00 3751.50,451.00 3660.00,493.50
             3568.50,536.00 3565.00,517.50 3558.00,533.00
             3551.00,548.50 3562.50,644.00 3599.00,675.00
             3635.50,706.00 3665.00,719.00 3738.00,714.00
             3811.00,709.00 3849.50,620.00 3840.00,604.50
             3830.50,589.00 3820.50,592.50 3814.50,605.50
             3808.50,618.50 3765.00,697.00 3714.00,690.50
             3663.00,684.00 3656.00,640.50 3652.00,632.00
             3648.00,623.50 3640.00,602.00 3638.50,583.50
             3637.00,565.00 3637.50,563.50 3637.50,563.50
             3637.50,563.50 3875.50,504.00 3805.00,390.00
             3741.50,297.00 3625.00,397.50 3625.00,397.50
             3625.00,397.50 3734.50,245.00 3751.00,197.00
             3767.50,149.00 3745.50,132.00 3731.00,132.50
             3716.50,133.00 3660.00,217.00 3619.50,271.50
             3579.00,326.00 3443.00,544.00 3430.50,581.00
             3421.50,600.00 3417.50,612.50 3414.00,630.00
             3410.50,647.50 3326.50,715.50 3296.00,685.00
             3265.50,654.50 3285.50,601.00 3309.50,569.50
             3333.50,538.00 3353.50,514.50 3370.00,497.50
             3386.50,480.50 3427.50,451.00 3426.50,426.50
             3425.50,402.00 3405.00,361.00 3380.50,361.50
             3356.00,362.00 3355.00,378.00 3308.00,392.50
             3261.00,407.00 3243.00,408.00 3243.00,408.00
             3243.00,408.00 3288.00,296.50 3247.00,299.00
             3206.00,301.50 3171.00,344.00 3157.00,372.00
             3143.00,400.00 3149.00,418.50 3150.50,421.00
             3165.00,443.50 3181.00,444.50 3181.00,444.50
             3181.00,444.50 3151.33,530.67 3106.67,579.33
             3062.00,628.00 3010.67,702.00 2953.33,690.00
             2896.00,678.00 2966.67,580.67 2996.67,539.33
             3026.67,498.00 3115.25,400.92 3049.25,352.25
             3028.00,338.00 2966.00,443.33 2956.00,458.67
             2946.00,474.00 2787.33,722.00 2722.00,679.33
             2656.67,636.67 2834.00,438.00 2883.00,409.00
             2932.00,380.00 2949.00,412.00 2947.50,417.50 Z
           M 1482.00,523.50
           C 1482.00,523.50 1524.50,456.50 1564.00,427.50
             1603.50,398.50 1639.50,381.00 1657.00,388.50
             1674.50,396.00 1650.50,435.00 1629.50,462.00
             1608.50,489.00 1572.50,521.50 1540.50,528.50
             1508.50,535.50 1482.00,523.50 1482.00,523.50 Z" />
</svg>
